<svg width="100%" viewBox="0 0 680 520" role="img" xmlns="http://www.w3.org/2000/svg">
  <title>Diagrama de arquitetura do Prospector CNPJ</title>
  <desc>Pipeline de dados: Receita Federal → ETL Python → Supabase PostGIS → Frontend GitHub Pages</desc>

  <style>
    svg {
      background: #07111f;
      font-family: Arial, Helvetica, sans-serif;
    }

    .th {
      font-size: 13px;
      font-weight: 700;
      fill: #eaf6ff;
    }

    .ts {
      font-size: 10px;
      fill: #9fb2c7;
    }

    .node rect {
      fill: #0f1e33;
      stroke: #254766;
    }

    .c-coral rect { fill: #2b1820; stroke: #ff6b6b; }
    .c-teal rect { fill: #102c2c; stroke: #20d6b0; }
    .c-purple rect { fill: #221a36; stroke: #a78bfa; }
    .c-gray rect { fill: #172033; stroke: #64748b; }
    .c-blue rect { fill: #10243d; stroke: #38bdf8; }
    .c-green rect { fill: #10291f; stroke: #22c55e; }
    .c-amber rect { fill: #2d2412; stroke: #f59e0b; }

    .divider {
      stroke: #213852;
      stroke-width: 0.8;
      stroke-dasharray: 4 4;
    }

    .arr {
      stroke: #38bdf8;
      stroke-width: 1.6;
      fill: none;
    }
  </style>

  <defs>
    <marker id="arrow" viewBox="0 0 10 10" refX="8" refY="5" markerWidth="6" markerHeight="6" orient="auto">
      <path d="M2 1L8 5L2 9" fill="none" stroke="#38bdf8" stroke-width="1.5" stroke-linecap="round" stroke-linejoin="round"/>
    </marker>
  </defs>

  <text class="ts" x="30" y="118" text-anchor="middle" transform="rotate(-90,30,118)">Fonte</text>
  <text class="ts" x="30" y="248" text-anchor="middle" transform="rotate(-90,30,248)">ETL</text>
  <text class="ts" x="30" y="368" text-anchor="middle" transform="rotate(-90,30,368)">Storage</text>
  <text class="ts" x="30" y="478" text-anchor="middle" transform="rotate(-90,30,478)">Frontend</text>

  <line x1="50" y1="158" x2="640" y2="158" class="divider"/>
  <line x1="50" y1="298" x2="640" y2="298" class="divider"/>
  <line x1="50" y1="418" x2="640" y2="418" class="divider"/>

  <g class="node c-coral">
    <rect x="80" y="70" width="180" height="56" rx="8"/>
    <text class="th" x="170" y="92" text-anchor="middle" dominant-baseline="central">Receita Federal</text>
    <text class="ts" x="170" y="110" text-anchor="middle" dominant-baseline="central">dados.gov.br · ZIPs mensais</text>
  </g>

  <g class="node c-teal">
    <rect x="420" y="70" width="180" height="56" rx="8"/>
    <text class="th" x="510" y="92" text-anchor="middle" dominant-baseline="central">Nominatim / OSM</text>
    <text class="ts" x="510" y="110" text-anchor="middle" dominant-baseline="central">Geocodificação de endereços</text>
  </g>

  <g class="node c-purple">
    <rect x="80" y="180" width="200" height="56" rx="8"/>
    <text class="th" x="180" y="202" text-anchor="middle" dominant-baseline="central">cnpjs_receita.py</text>
    <text class="ts" x="180" y="220" text-anchor="middle" dominant-baseline="central">Download → parse → carga</text>
  </g>

  <g class="node c-gray">
    <rect x="220" y="183" width="100" height="50" rx="6"/>
    <text class="ts" x="270" y="202" text-anchor="middle" dominant-baseline="central">GitHub</text>
    <text class="ts" x="270" y="218" text-anchor="middle" dominant-baseline="central">Actions</text>
    <text class="ts" x="270" y="230" text-anchor="middle" dominant-baseline="central">cron mensal</text>
  </g>

  <g class="node c-purple">
    <rect x="350" y="180" width="240" height="56" rx="8"/>
    <text class="th" x="470" y="202" text-anchor="middle" dominant-baseline="central">geocodificar_supabase.py</text>
    <text class="ts" x="470" y="220" text-anchor="middle" dominant-baseline="central">Endereço → lat/lon → geom</text>
  </g>

  <g class="node c-teal">
    <rect x="80" y="320" width="180" height="56" rx="8"/>
    <text class="th" x="170" y="342" text-anchor="middle" dominant-baseline="central">Supabase</text>
    <text class="ts" x="170" y="360" text-anchor="middle" dominant-baseline="central">PostgreSQL + PostGIS</text>
  </g>

  <g class="node c-blue">
    <rect x="310" y="320" width="180" height="56" rx="8"/>
    <text class="th" x="400" y="342" text-anchor="middle" dominant-baseline="central">Função RPC</text>
    <text class="ts" x="400" y="360" text-anchor="middle" dominant-baseline="central">buscar_empresas_raio</text>
  </g>

  <g class="node c-blue">
    <rect x="510" y="320" width="130" height="56" rx="8"/>
    <text class="th" x="575" y="342" text-anchor="middle" dominant-baseline="central">Índice GIST</text>
    <text class="ts" x="575" y="360" text-anchor="middle" dominant-baseline="central">ST_DWithin</text>
  </g>

  <g class="node c-gray">
    <rect x="80" y="440" width="130" height="56" rx="8"/>
    <text class="th" x="145" y="462" text-anchor="middle" dominant-baseline="central">GitHub Pages</text>
    <text class="ts" x="145" y="480" text-anchor="middle" dominant-baseline="central">Hospedagem gratuita</text>
  </g>

  <g class="node c-green">
    <rect x="240" y="440" width="120" height="56" rx="8"/>
    <text class="th" x="300" y="462" text-anchor="middle" dominant-baseline="central">Leaflet.js</text>
    <text class="ts" x="300" y="480" text-anchor="middle" dominant-baseline="central">Mapa interativo</text>
  </g>

  <g class="node c-amber">
    <rect x="390" y="440" width="120" height="56" rx="8"/>
    <text class="th" x="450" y="462" text-anchor="middle" dominant-baseline="central">Chart.js</text>
    <text class="ts" x="450" y="480" text-anchor="middle" dominant-baseline="central">Gráficos CNAE</text>
  </g>

  <g class="node c-gray">
    <rect x="540" y="440" width="100" height="56" rx="8"/>
    <text class="th" x="590" y="462" text-anchor="middle" dominant-baseline="central">Export CSV</text>
    <text class="ts" x="590" y="480" text-anchor="middle" dominant-baseline="central">Download</text>
  </g>

  <line x1="170" y1="126" x2="170" y2="178" class="arr" marker-end="url(#arrow)"/>
  <line x1="510" y1="126" x2="510" y2="178" class="arr" marker-end="url(#arrow)"/>
  <line x1="180" y1="236" x2="170" y2="318" class="arr" marker-end="url(#arrow)"/>
  <path d="M470 236 L470 280 L220 280 L220 318" class="arr" marker-end="url(#arrow)"/>
  <line x1="260" y1="348" x2="308" y2="348" class="arr" marker-end="url(#arrow)"/>
  <line x1="490" y1="348" x2="508" y2="348" class="arr" marker-end="url(#arrow)"/>
  <path d="M400 376 L400 400 L145 400 L145 438" class="arr" marker-end="url(#arrow)"/>
  <path d="M260 376 L260 410 L300 410 L300 438" class="arr" marker-end="url(#arrow)"/>
  <path d="M280 365 L450 365 L450 438" class="arr" marker-end="url(#arrow)"/>
</svg>
