<svg width="100%" viewBox="0 0 680 520" role="img" xmlns="http://www.w3.org/2000/svg">
  <title>Diagrama de arquitetura do Prospector CNPJ</title>
  <desc>Pipeline de dados: Receita Federal → ETL Python → Supabase PostGIS → Frontend GitHub Pages</desc>

  <defs>
    <marker id="arrow" viewBox="0 0 10 10" refX="8" refY="5" markerWidth="6" markerHeight="6" orient="auto-start-reverse">
      <path d="M2 1L8 5L2 9" fill="none" stroke="context-stroke" stroke-width="1.5" stroke-linecap="round" stroke-linejoin="round"/>
    </marker>
  </defs>

  <!-- ── LAYER LABELS (left) ──────────────────────────── -->
  <text class="ts" x="30" y="118" text-anchor="middle" transform="rotate(-90,30,118)" opacity=".5">Fonte</text>
  <text class="ts" x="30" y="248" text-anchor="middle" transform="rotate(-90,30,248)" opacity=".5">ETL</text>
  <text class="ts" x="30" y="368" text-anchor="middle" transform="rotate(-90,30,368)" opacity=".5">Storage</text>
  <text class="ts" x="30" y="478" text-anchor="middle" transform="rotate(-90,30,478)" opacity=".5">Frontend</text>

  <!-- ── DIVIDERS ───────────────────────────────────────── -->
  <line x1="50" y1="158" x2="640" y2="158" stroke="var(--color-border-tertiary)" stroke-width="0.5" stroke-dasharray="4 4"/>
  <line x1="50" y1="298" x2="640" y2="298" stroke="var(--color-border-tertiary)" stroke-width="0.5" stroke-dasharray="4 4"/>
  <line x1="50" y1="418" x2="640" y2="418" stroke="var(--color-border-tertiary)" stroke-width="0.5" stroke-dasharray="4 4"/>

  <!-- ════════════════════════════════════════════════════
       ROW 1 — FONTES
  ═════════════════════════════════════════════════════ -->

  <!-- Receita Federal -->
  <g class="node c-coral" onclick="">
    <rect x="80" y="70" width="180" height="56" rx="8" stroke-width="0.5"/>
    <text class="th" x="170" y="92" text-anchor="middle" dominant-baseline="central">Receita Federal</text>
    <text class="ts" x="170" y="110" text-anchor="middle" dominant-baseline="central">dados.gov.br · ZIPs mensais</text>
  </g>

  <!-- Nominatim OSM -->
  <g class="node c-teal" onclick="">
    <rect x="420" y="70" width="180" height="56" rx="8" stroke-width="0.5"/>
    <text class="th" x="510" y="92" text-anchor="middle" dominant-baseline="central">Nominatim / OSM</text>
    <text class="ts" x="510" y="110" text-anchor="middle" dominant-baseline="central">Geocodificação de endereços</text>
  </g>

  <!-- ════════════════════════════════════════════════════
       ROW 2 — ETL
  ═════════════════════════════════════════════════════ -->

  <!-- cnpjs_receita.py -->
  <g class="node c-purple" onclick="">
    <rect x="80" y="180" width="200" height="56" rx="8" stroke-width="0.5"/>
    <text class="th" x="180" y="202" text-anchor="middle" dominant-baseline="central">cnpjs_receita.py</text>
    <text class="ts" x="180" y="220" text-anchor="middle" dominant-baseline="central">Download → parse → carga</text>
  </g>

  <!-- geocodificar_supabase.py -->
  <g class="node c-purple" onclick="">
    <rect x="350" y="180" width="240" height="56" rx="8" stroke-width="0.5"/>
    <text class="th" x="470" y="202" text-anchor="middle" dominant-baseline="central">geocodificar_supabase.py</text>
    <text class="ts" x="470" y="220" text-anchor="middle" dominant-baseline="central">Endereço → lat/lon → geom</text>
  </g>

  <!-- GitHub Actions badge -->
  <g class="node c-gray" onclick="">
    <rect x="220" y="183" width="100" height="50" rx="6" stroke-width="0.5"/>
    <text class="ts" x="270" y="202" text-anchor="middle" dominant-baseline="central">GitHub</text>
    <text class="ts" x="270" y="218" text-anchor="middle" dominant-baseline="central">Actions</text>
    <text class="ts" x="270" y="230" text-anchor="middle" dominant-baseline="central">cron mensal</text>
  </g>

  <!-- ════════════════════════════════════════════════════
       ROW 3 — STORAGE
  ═════════════════════════════════════════════════════ -->

  <!-- Supabase -->
  <g class="node c-teal" onclick="">
    <rect x="80" y="320" width="180" height="56" rx="8" stroke-width="0.5"/>
    <text class="th" x="170" y="342" text-anchor="middle" dominant-baseline="central">Supabase</text>
    <text class="ts" x="170" y="360" text-anchor="middle" dominant-baseline="central">PostgreSQL + PostGIS</text>
  </g>

  <!-- Função RPC -->
  <g class="node c-blue" onclick="">
    <rect x="310" y="320" width="180" height="56" rx="8" stroke-width="0.5"/>
    <text class="th" x="400" y="342" text-anchor="middle" dominant-baseline="central">Função RPC</text>
    <text class="ts" x="400" y="360" text-anchor="middle" dominant-baseline="central">buscar_empresas_raio</text>
  </g>

  <!-- Índice GIST -->
  <g class="node c-blue" onclick="">
    <rect x="510" y="320" width="130" height="56" rx="8" stroke-width="0.5"/>
    <text class="th" x="575" y="342" text-anchor="middle" dominant-baseline="central">Índice GIST</text>
    <text class="ts" x="575" y="360" text-anchor="middle" dominant-baseline="central">ST_DWithin</text>
  </g>

  <!-- ════════════════════════════════════════════════════
       ROW 4 — FRONTEND
  ═════════════════════════════════════════════════════ -->

  <!-- GitHub Pages -->
  <g class="node c-gray" onclick="">
    <rect x="80" y="440" width="130" height="56" rx="8" stroke-width="0.5"/>
    <text class="th" x="145" y="462" text-anchor="middle" dominant-baseline="central">GitHub Pages</text>
    <text class="ts" x="145" y="480" text-anchor="middle" dominant-baseline="central">Hospedagem gratuita</text>
  </g>

  <!-- Leaflet.js -->
  <g class="node c-green" onclick="">
    <rect x="240" y="440" width="120" height="56" rx="8" stroke-width="0.5"/>
    <text class="th" x="300" y="462" text-anchor="middle" dominant-baseline="central">Leaflet.js</text>
    <text class="ts" x="300" y="480" text-anchor="middle" dominant-baseline="central">Mapa interativo</text>
  </g>

  <!-- Chart.js -->
  <g class="node c-amber" onclick="">
    <rect x="390" y="440" width="120" height="56" rx="8" stroke-width="0.5"/>
    <text class="th" x="450" y="462" text-anchor="middle" dominant-baseline="central">Chart.js</text>
    <text class="ts" x="450" y="480" text-anchor="middle" dominant-baseline="central">Gráficos CNAE</text>
  </g>

  <!-- Export CSV -->
  <g class="node c-gray" onclick="">
    <rect x="540" y="440" width="100" height="56" rx="8" stroke-width="0.5"/>
    <text class="th" x="590" y="462" text-anchor="middle" dominant-baseline="central">Export CSV</text>
    <text class="ts" x="590" y="480" text-anchor="middle" dominant-baseline="central">Download</text>
  </g>

  <!-- ════════════════════════════════════════════════════
       ARROWS
  ═════════════════════════════════════════════════════ -->

  <!-- Receita → cnpjs_receita.py -->
  <line x1="170" y1="126" x2="170" y2="178" class="arr" marker-end="url(#arrow)"/>

  <!-- Nominatim → geocodificar -->
  <line x1="510" y1="126" x2="510" y2="178" class="arr" marker-end="url(#arrow)"/>

  <!-- cnpjs_receita → Supabase -->
  <line x1="180" y1="236" x2="170" y2="318" class="arr" marker-end="url(#arrow)"/>

  <!-- geocodificar → Supabase -->
  <path d="M470 236 L470 280 L220 280 L220 318" fill="none" class="arr" marker-end="url(#arrow)"/>

  <!-- Supabase → Função RPC -->
  <line x1="260" y1="348" x2="308" y2="348" class="arr" marker-end="url(#arrow)"/>

  <!-- Função RPC → Índice GIST -->
  <line x1="490" y1="348" x2="508" y2="348" class="arr" marker-end="url(#arrow)"/>

  <!-- Função RPC → GitHub Pages (via frontend query) -->
  <path d="M400 376 L400 400 L145 400 L145 438" fill="none" class="arr" marker-end="url(#arrow)"/>

  <!-- Supabase → Leaflet.js (coords) -->
  <path d="M260 376 L260 410 L300 410 L300 438" fill="none" class="arr" marker-end="url(#arrow)"/>

  <!-- Supabase → Chart.js -->
  <path d="M280 365 L450 365 L450 438" fill="none" class="arr" marker-end="url(#arrow)"/>

</svg>
